<svg width="12" height="12" viewBox="0 0 12 12" fill="none" xmlns="http://www.w3.org/2000/svg">
<path d="M11.6646 7.39706L7.86619 5.99992L11.6977 4.60279C11.8959 4.54069 12.028 4.32336 11.9949 4.13708C11.9289 3.73346 11.7307 3.36089 11.4995 3.01937C11.3013 2.6468 11.0371 2.33632 10.7068 2.05689C10.5416 1.9327 10.3104 1.9327 10.1453 2.05689L6.94136 4.4786L7.60195 0.659758C7.66802 0.442426 7.53589 0.256141 7.33771 0.194046C6.94135 0.0388089 6.47893 -0.0232856 6.04954 0.0077619C5.62015 -0.0232856 5.15774 0.0388089 4.76138 0.194046C4.5632 0.256141 4.43108 0.473474 4.49714 0.659758L5.15774 4.4786L1.95383 2.05689C1.78868 1.90166 1.55747 1.90166 1.39232 2.05689C1.06202 2.30527 0.797778 2.6468 0.599598 3.01937C0.335358 3.36089 0.170207 3.73346 0.0711173 4.13708C0.0380873 4.35441 0.170208 4.54069 0.368388 4.60279L4.13381 5.99992L0.302327 7.39706C0.104148 7.45916 -0.0279716 7.67649 0.00505836 7.86277C0.0711183 8.26639 0.236268 8.63896 0.500508 8.98048C0.698688 9.35305 0.962927 9.66353 1.29323 9.94295C1.45838 10.0671 1.68959 10.0671 1.85474 9.94295L5.05864 7.52125L4.39804 11.3401C4.33198 11.5574 4.46411 11.7437 4.66229 11.8369C5.09168 11.961 5.52107 12.0231 5.95046 11.9921C6.37985 12.0231 6.84227 11.961 7.23863 11.8369C7.43681 11.7748 7.56892 11.5574 7.50286 11.3401L6.84226 7.52125L10.0462 9.94295C10.2113 10.0671 10.4425 10.0671 10.6407 9.94295C10.971 9.69457 11.2353 9.3841 11.4334 9.01153C11.6977 8.67001 11.8628 8.29744 11.9619 7.89382C11.9949 7.64544 11.8959 7.45916 11.6646 7.39706Z" fill="#CAB382"/>
</svg>
