<svg width="41" height="42" viewBox="0 0 41 42" fill="none" xmlns="http://www.w3.org/2000/svg">
<path d="M10.1665 12.1041C10.5175 12.1041 10.802 11.8196 10.802 11.4687C10.802 11.1177 10.5175 10.8333 10.1665 10.8333C9.81561 10.8333 9.53113 11.1177 9.53113 11.4687C9.53113 11.8196 9.81561 12.1041 10.1665 12.1041Z" fill="white"/>
<path d="M15.2499 12.1041C15.6008 12.1041 15.8853 11.8196 15.8853 11.4687C15.8853 11.1177 15.6008 10.8333 15.2499 10.8333C14.899 10.8333 14.6145 11.1177 14.6145 11.4687C14.6145 11.8196 14.899 12.1041 15.2499 12.1041Z" fill="white"/>
<path d="M13.979 12.7395V10.8333H12.7082V12.7395C12.708 12.908 12.641 13.0695 12.5219 13.1886C12.4028 13.3077 12.2413 13.3747 12.0728 13.3749H11.4374V14.6458H12.0728C12.5782 14.6452 13.0627 14.4442 13.4201 14.0868C13.7775 13.7294 13.9785 13.2449 13.979 12.7395Z" fill="white"/>
<path d="M9.59814 16.2008C9.84039 16.6894 10.2147 17.1004 10.6786 17.3871C11.1425 17.6737 11.6774 17.8247 12.2227 17.8229H13.979V16.5521H12.2227C11.9136 16.5531 11.6103 16.4675 11.3473 16.305C11.0843 16.1424 10.8721 15.9094 10.7348 15.6324L9.59814 16.2008Z" fill="white"/>
<path d="M24.1458 26.7188V24.8125C24.1446 23.8017 23.7426 22.8327 23.0278 22.1179C22.3131 21.4032 21.344 21.0012 20.3333 21H18.427V19.0278C18.9918 18.9091 19.5118 18.6337 19.9274 18.2332C20.343 17.8327 20.6373 17.3232 20.7767 16.7631L20.8422 16.5009C21.4157 16.3829 21.931 16.0707 22.3013 15.6171C22.6716 15.1634 22.8742 14.596 22.8749 14.0104V8.29168C22.8742 7.61782 22.6061 6.97179 22.1296 6.4953C21.6531 6.01881 21.0071 5.75078 20.3333 5.75002C19.9963 5.74963 19.6733 5.61561 19.4351 5.37737C19.1968 5.13913 19.0628 4.81611 19.0624 4.47918C19.0617 3.80532 18.7936 3.15929 18.3171 2.6828C17.8406 2.20631 17.1946 1.93828 16.5208 1.93751H14.7645C13.9954 1.93507 13.2565 2.23627 12.7083 2.77565C12.16 2.23627 11.4211 1.93507 10.652 1.93751H8.89575C8.22189 1.93828 7.57586 2.20631 7.09937 2.6828C6.62288 3.15929 6.35485 3.80532 6.35409 4.47918C6.3537 4.81611 6.21969 5.13913 5.98144 5.37737C5.7432 5.61561 5.42018 5.74963 5.08325 5.75002C4.40939 5.75078 3.76336 6.01881 3.28687 6.4953C2.81038 6.97179 2.54235 7.61782 2.54159 8.29168V14.0104C2.54234 14.596 2.74493 15.1634 3.1152 15.6171C3.48547 16.0707 4.0008 16.3829 4.57434 16.5009L4.63989 16.7632C4.77927 17.3233 5.0736 17.8327 5.48916 18.2333C5.90471 18.6338 6.42468 18.9091 6.9895 19.0278V21H5.08325C4.07246 21.0012 3.1034 21.4032 2.38866 22.1179C1.67392 22.8327 1.27189 23.8017 1.27075 24.8125V26.7188C1.27074 26.8655 1.3215 27.0076 1.4144 27.1211L6.28404 33.0729H4.44784C4.34323 33.0729 4.24024 33.0988 4.14801 33.1481C4.05578 33.1975 3.97717 33.2689 3.91915 33.3559L2.64832 35.2621C2.57873 35.3665 2.54159 35.4892 2.54159 35.6146V39.4271C2.54159 39.5956 2.60853 39.7572 2.7277 39.8764C2.84686 39.9956 3.00848 40.0625 3.177 40.0625H22.2395C22.408 40.0625 22.5696 39.9956 22.6888 39.8764C22.808 39.7572 22.8749 39.5956 22.8749 39.4271V35.6146C22.8749 35.4892 22.8378 35.3665 22.7682 35.2621L21.4974 33.3559C21.4393 33.2689 21.3607 33.1975 21.2685 33.1481C21.1763 33.0988 21.0733 33.0729 20.9687 33.0729H19.1325L24.0021 27.1211C24.095 27.0076 24.1458 26.8655 24.1458 26.7188ZM8.26034 9.54813C8.60085 9.50897 8.92437 9.37819 9.19643 9.16971C9.46849 8.96123 9.67892 8.68286 9.80529 8.36424L10.2808 7.1754L10.7876 8.02001C11.071 8.4894 11.4706 8.87789 11.9477 9.14806C12.4249 9.41822 12.9636 9.56096 13.5119 9.56251H17.1562V15.2813C17.1562 16.4609 16.6876 17.5923 15.8534 18.4264C15.0193 19.2606 13.8879 19.7292 12.7083 19.7292C11.5286 19.7292 10.3972 19.2606 9.5631 18.4264C8.72895 17.5923 8.26034 16.4609 8.26034 15.2813V9.54813ZM5.87279 16.4549L5.69974 15.7626C5.66536 15.6251 5.58602 15.5031 5.47432 15.4159C5.36261 15.3286 5.22497 15.2813 5.08325 15.2813C4.74632 15.2809 4.42331 15.1469 4.18506 14.9086C3.94682 14.6704 3.8128 14.3474 3.81242 14.0104V8.29168C3.8128 7.95475 3.94682 7.63174 4.18506 7.39349C4.42331 7.15525 4.74632 7.02123 5.08325 7.02085C5.75711 7.02008 6.40315 6.75206 6.87964 6.27557C7.35613 5.79908 7.62415 5.15304 7.62492 4.47918C7.6253 4.14225 7.75932 3.81924 7.99756 3.58099C8.23581 3.34275 8.55882 3.20873 8.89575 3.20835H10.652C10.9612 3.20731 11.2644 3.29291 11.5274 3.45545C11.7904 3.61799 12.0026 3.85097 12.1399 4.12796C12.1927 4.2335 12.2738 4.32226 12.3742 4.38429C12.4746 4.44633 12.5903 4.47918 12.7083 4.47918C12.8263 4.47918 12.9419 4.44633 13.0423 4.38429C13.1427 4.32226 13.2238 4.2335 13.2766 4.12796C13.4139 3.85097 13.6261 3.61799 13.8891 3.45545C14.1521 3.29291 14.4553 3.20731 14.7645 3.20835H16.5208C16.8577 3.20873 17.1807 3.34275 17.4189 3.58099C17.6572 3.81924 17.7912 4.14225 17.7916 4.47918C17.7924 5.15304 18.0604 5.79908 18.5369 6.27557C19.0134 6.75206 19.6594 7.02008 20.3333 7.02085C20.6702 7.02123 20.9932 7.15525 21.2314 7.39349C21.4697 7.63174 21.6037 7.95475 21.6041 8.29168V14.0104C21.6037 14.3474 21.4697 14.6704 21.2314 14.9086C20.9932 15.1469 20.6702 15.2809 20.3333 15.2813C20.1915 15.2813 20.0539 15.3286 19.9422 15.4159C19.8305 15.5031 19.7511 15.6251 19.7168 15.7626L19.5438 16.4549C19.4731 16.7384 19.3345 17.0006 19.1399 17.2186C18.9454 17.4367 18.7007 17.6042 18.427 17.7067V9.56251H19.6978V8.29168H13.5119C13.1829 8.29076 12.8597 8.20512 12.5734 8.04301C12.2871 7.88091 12.0474 7.64781 11.8774 7.36617L10.7115 5.42308C10.6506 5.32159 10.5626 5.23913 10.4573 5.18499C10.3521 5.13084 10.2338 5.10716 10.1158 5.11661C9.99788 5.12607 9.88489 5.16828 9.78962 5.2385C9.69435 5.30871 9.62058 5.40414 9.57662 5.51402L8.62536 7.89226C8.57854 8.01042 8.49719 8.11173 8.39194 8.18297C8.28669 8.25422 8.16242 8.29211 8.03532 8.29168H5.71867V9.56251H6.9895V17.7068C6.71582 17.6043 6.47117 17.4368 6.27663 17.2187C6.08209 17.0006 5.94349 16.7385 5.87279 16.4549ZM21.6041 35.807V38.7917H3.81242V35.807L4.78788 34.3438H20.6286L21.6041 35.807ZM22.8749 26.492L17.4905 33.0729H7.92601L2.54159 26.492V24.8125C2.54235 24.1387 2.81038 23.4926 3.28687 23.0161C3.76336 22.5396 4.40939 22.2716 5.08325 22.2708H7.62492C7.79344 22.2708 7.95506 22.2039 8.07422 22.0847C8.19339 21.9656 8.26033 21.804 8.26034 21.6354V18.8702C8.79541 19.535 9.47273 20.0715 10.2425 20.4401C11.0122 20.8087 11.8548 21 12.7083 21C13.5617 21 14.4043 20.8087 15.174 20.4401C15.9438 20.0715 16.6211 19.535 17.1562 18.8702V21.6354C17.1562 21.804 17.2231 21.9656 17.3423 22.0847C17.4614 22.2039 17.6231 22.2708 17.7916 22.2708H20.3333C21.0071 22.2716 21.6531 22.5396 22.1296 23.0161C22.6061 23.4926 22.8742 24.1387 22.8749 24.8125V26.492Z" fill="white"/>
<path d="M15.1279 24.2528C15.4767 23.4429 15.7086 22.5876 15.8165 21.7124L14.5552 21.5582C14.3594 23.1355 13.703 24.62 12.6681 25.8262C12.3179 25.3178 11.8495 24.902 11.303 24.6147C10.7566 24.3274 10.1485 24.1772 9.53117 24.177H6.9895V25.4478H9.53117C10.205 25.4486 10.8511 25.7166 11.3276 26.1931C11.804 26.6696 12.0721 27.3156 12.0728 27.9895V29.2603H13.3437V27.9895C13.3444 27.3156 13.6125 26.6696 14.0889 26.1931C14.5654 25.7166 15.2115 25.4486 15.8853 25.4478H18.427V24.177H15.8853C15.631 24.177 15.3772 24.2024 15.1279 24.2528Z" fill="white"/>
<path d="M38.7603 1.9375H20.3333V3.20833H37.2263L35.32 5.11458H22.8749V6.38542H34.9478V19.1298L31.5047 16.6704C31.4087 16.6018 31.2954 16.5613 31.1777 16.5535C31.0599 16.5456 30.9423 16.5707 30.838 16.6259L26.2499 19.0549L23.297 16.4302L22.4528 17.38L25.0511 19.6896L23.213 20.6627L23.8076 21.7859L31.0855 17.9328L34.9478 20.6916V25.4479H25.4166V26.7188H35.32L37.2263 28.625H24.1458V29.8958H38.7603C38.9289 29.8958 39.0905 29.8289 39.2096 29.7097C39.3288 29.5906 39.3958 29.4289 39.3958 29.2604V2.57292C39.3958 2.40439 39.3288 2.24277 39.2096 2.12361C39.0905 2.00445 38.9289 1.9375 38.7603 1.9375ZM36.2187 6.01322L38.1249 4.10697V27.7264L36.2187 25.8201V6.01322Z" fill="white"/>
<path d="M30.4999 12.7396C30.4999 12.1112 30.3136 11.497 29.9645 10.9745C29.6154 10.452 29.1192 10.0448 28.5387 9.80434C27.9581 9.56388 27.3193 9.50096 26.703 9.62355C26.0867 9.74614 25.5206 10.0487 25.0763 10.493C24.632 10.9374 24.3294 11.5035 24.2068 12.1198C24.0842 12.7361 24.1471 13.3749 24.3876 13.9554C24.6281 14.5359 25.0353 15.0321 25.5577 15.3812C26.0802 15.7303 26.6945 15.9167 27.3228 15.9167C28.1652 15.9157 28.9727 15.5807 29.5683 14.9851C30.1639 14.3895 30.499 13.5819 30.4999 12.7396ZM25.4166 12.7396C25.4166 12.3626 25.5284 11.994 25.7378 11.6805C25.9473 11.367 26.245 11.1227 26.5933 10.9784C26.9417 10.8342 27.325 10.7964 27.6947 10.87C28.0645 10.9435 28.4042 11.1251 28.6708 11.3917C28.9374 11.6583 29.1189 11.9979 29.1925 12.3677C29.266 12.7375 29.2283 13.1208 29.084 13.4691C28.9397 13.8174 28.6954 14.1151 28.3819 14.3246C28.0684 14.534 27.6999 14.6458 27.3228 14.6458C26.8174 14.6453 26.3329 14.4442 25.9756 14.0869C25.6182 13.7295 25.4172 13.245 25.4166 12.7396Z" fill="white"/>
</svg>
