<svg width="34" height="33" viewBox="0 0 34 33" fill="none" xmlns="http://www.w3.org/2000/svg">
<path d="M32.8155 18.8025H3.93544C3.6495 18.8025 3.41779 18.5708 3.41779 18.2849C3.41779 17.9989 3.6495 17.7672 3.93544 17.7672H32.8155C33.1015 17.7672 33.3332 17.999 33.3332 18.2849C33.3332 18.5709 33.1014 18.8025 32.8155 18.8025Z" fill="white"/>
<path d="M6.26565 18.8025C6.18377 18.8025 6.10087 18.7829 6.02341 18.7418C5.77086 18.608 5.67475 18.2945 5.80883 18.0419L6.58695 16.5753C6.72059 16.3227 7.03405 16.2267 7.28681 16.3607C7.53944 16.4945 7.63548 16.808 7.5014 17.0605L6.72328 18.5272C6.63043 18.7024 6.45113 18.8025 6.26565 18.8025Z" fill="white"/>
<path d="M11.0587 18.8026C10.9768 18.8026 10.8939 18.783 10.8164 18.7419C10.5639 18.6081 10.4678 18.2947 10.6018 18.042L13.2363 13.0766C13.3701 12.8243 13.683 12.7276 13.9362 12.862C14.1888 12.9959 14.2848 13.3094 14.1507 13.5619L11.5163 18.5273C11.4235 18.7026 11.2441 18.8026 11.0587 18.8026Z" fill="white"/>
<path d="M14.5367 18.8026C14.4548 18.8026 14.3718 18.783 14.2944 18.7419C14.0418 18.6081 13.9458 18.2947 14.0798 18.042L16.7144 13.0766C16.8481 12.8243 17.161 12.7276 17.4143 12.862C17.6669 12.9959 17.763 13.3094 17.6289 13.5619L14.9943 18.5273C14.9014 18.7026 14.7221 18.8026 14.5367 18.8026Z" fill="white"/>
<path d="M19.3293 18.8026C19.2475 18.8026 19.1646 18.783 19.0871 18.7419C18.8345 18.6081 18.7385 18.2947 18.8725 18.042L21.5072 13.0766C21.6406 12.8243 21.9536 12.7276 22.2071 12.862C22.4596 12.9959 22.5557 13.3094 22.4216 13.5619L19.787 18.5273C19.6941 18.7026 19.5148 18.8026 19.3293 18.8026Z" fill="white"/>
<path d="M22.8073 18.8026C22.7253 18.8026 22.6424 18.783 22.5649 18.7419C22.3124 18.6081 22.2164 18.2947 22.3504 18.042L24.985 13.0766C25.1185 12.8243 25.4315 12.7276 25.6849 12.862C25.9375 12.9959 26.0336 13.3094 25.8995 13.5619L23.2648 18.5273C23.172 18.7026 22.9927 18.8026 22.8073 18.8026Z" fill="white"/>
<path d="M27.6004 18.8026C27.5186 18.8026 27.4356 18.783 27.3582 18.7419C27.1056 18.6081 27.0095 18.2947 27.1436 18.042L29.7782 13.0766C29.9121 12.8243 30.2253 12.7276 30.4781 12.862C30.7307 12.9959 30.8268 13.3094 30.6927 13.5619L28.0581 18.5273C27.9652 18.7026 27.7858 18.8026 27.6004 18.8026Z" fill="white"/>
<path d="M6.58701 7.44606C6.53365 7.44606 6.47942 7.43771 6.42585 7.42015C6.15421 7.33115 6.00605 7.03874 6.09497 6.76703L6.92028 4.24676C7.00928 3.97511 7.30146 3.82652 7.5734 3.91588C7.84504 4.00488 7.9932 4.29728 7.90427 4.56907L7.07897 7.08934C7.00768 7.30756 6.80486 7.44606 6.58701 7.44606Z" fill="white"/>
<path d="M10.3859 9.45026C10.3325 9.45026 10.2783 9.44192 10.2247 9.42435C9.95313 9.33535 9.80489 9.04295 9.89389 8.77116L11.6429 3.42921C11.7316 3.15764 12.0243 3.00897 12.296 3.0984C12.5676 3.1874 12.7159 3.4798 12.6269 3.75152L10.8779 9.09347C10.8065 9.31169 10.6037 9.45026 10.3859 9.45026Z" fill="white"/>
<path d="M13.8128 8.85694C13.7595 8.85694 13.7053 8.84866 13.6517 8.8311C13.38 8.7421 13.2319 8.44969 13.3208 8.17791L15.0699 2.83595C15.1589 2.56424 15.451 2.41637 15.723 2.50515C15.9946 2.59415 16.1428 2.88655 16.0538 3.15827L14.3048 8.50022C14.2334 8.71843 14.0306 8.85694 13.8128 8.85694Z" fill="white"/>
<path d="M18.5355 8.03947C18.482 8.03947 18.4278 8.03112 18.3742 8.01356C18.1027 7.92456 17.9544 7.63215 18.0434 7.36044L19.7924 2.01849C19.8812 1.74706 20.1738 1.59883 20.4455 1.68761C20.7172 1.77661 20.8654 2.06901 20.7764 2.3408L19.0274 7.68275C18.9561 7.90097 18.7532 8.03947 18.5355 8.03947Z" fill="white"/>
<path d="M21.9624 7.446C21.909 7.446 21.8548 7.43765 21.8012 7.42009C21.5296 7.33109 21.3814 7.03869 21.4703 6.76697L23.2194 1.42502C23.3084 1.15338 23.6006 1.005 23.8725 1.09414C24.1441 1.18314 24.2923 1.47554 24.2034 1.74733L22.4543 7.08928C22.383 7.3075 22.1801 7.446 21.9624 7.446Z" fill="white"/>
<path d="M26.6849 6.62842C26.6315 6.62842 26.5773 6.62014 26.5237 6.60257C26.2521 6.51357 26.1039 6.22117 26.1929 5.94938L27.9419 0.60743C28.0307 0.335861 28.3233 0.187191 28.595 0.276625C28.8666 0.365624 29.0149 0.658027 28.9259 0.929742L27.1769 6.2717C27.1055 6.48991 26.9027 6.62842 26.6849 6.62842Z" fill="white"/>
<path d="M32.8154 22.9569H13.092C12.8061 22.9569 12.5743 22.7252 12.5743 22.4393C12.5743 22.1533 12.8061 21.9216 13.092 21.9216H32.8154C33.1014 21.9216 33.3331 22.1533 33.3331 22.4393C33.3331 22.7252 33.1013 22.9569 32.8154 22.9569Z" fill="white"/>
<path d="M4.56879 15.9171C2.41714 15.9171 0.666565 14.1664 0.666565 12.0149C0.666565 9.86307 2.41714 8.11243 4.56879 8.11243C6.72051 8.11243 8.47115 9.863 8.47115 12.0149C8.47108 14.1664 6.72051 15.9171 4.56879 15.9171ZM4.56879 9.14782C2.98801 9.14782 1.70195 10.4339 1.70195 12.0149C1.70195 13.5956 2.98801 14.8817 4.56879 14.8817C6.14971 14.8817 7.43576 13.5956 7.43576 12.0149C7.43576 10.4339 6.14971 9.14782 4.56879 9.14782Z" fill="white"/>
<path d="M9.58467 9.58864C9.33763 9.58864 9.11877 9.41107 9.07528 9.15932C9.02636 8.87759 9.21524 8.60972 9.4969 8.56101L31.2251 4.79933L30.6739 1.61498C30.6419 1.43118 30.5404 1.27082 30.388 1.16324C30.2355 1.0558 30.0501 1.01435 29.8666 1.04593L3.80629 5.55756C3.42677 5.62326 3.17154 5.9855 3.23723 6.36508L3.31933 6.83984C3.36826 7.12157 3.17938 7.38944 2.89779 7.43822C2.61664 7.48918 2.34819 7.29826 2.29941 7.0166L2.21716 6.54163C2.05412 5.5993 2.68792 4.70046 3.62981 4.53749L29.6899 0.0259984C30.631 -0.138206 31.531 0.496399 31.6939 1.43829L32.3336 5.13282C32.357 5.26814 32.3259 5.40722 32.2465 5.51945C32.1675 5.63168 32.0472 5.7079 31.9119 5.73113L9.67367 9.58094C9.64368 9.58624 9.61407 9.58864 9.58467 9.58864Z" fill="white"/>
<path d="M30.6474 32.0772H6.10355C4.62273 32.0772 3.41791 30.8724 3.41791 29.3913V17.3329C3.41791 17.0469 3.64962 16.8152 3.93557 16.8152C4.22151 16.8152 4.45323 17.047 4.45323 17.3329V29.3913C4.45323 30.3015 5.19353 31.0419 6.10348 31.0419H30.6474C31.5575 31.0419 32.2978 30.3015 32.2978 29.3913V13.837H9.99553C9.70959 13.837 9.47787 13.6052 9.47787 13.3193C9.47787 13.0334 9.70966 12.8016 9.99553 12.8016H32.8156C33.1016 12.8016 33.3332 13.0334 33.3332 13.3193V29.3913C33.3332 30.8724 32.1284 32.0772 30.6474 32.0772Z" fill="white"/>
</svg>
